<svg width="100" height="100" viewBox="0 0 100 100" fill="none" xmlns="http://www.w3.org/2000/svg">
<g clip-path="url(#clip0_1_2)">
<rect width="100" height="100" fill="white"/>
<g clip-path="url(#clip1_1_2)">
<path d="M55.5556 72.2222C55.5556 73.7583 54.3139 75 52.7778 75C51.2444 75 50 73.7583 50 72.2222V2.77778C50 1.24444 51.2444 0 52.7778 0C54.3139 0 55.5556 1.24444 55.5556 2.77778V72.2222Z" fill="#A7A9AC"/>
<path d="M8.33334 66.6667H94.4445V88.8889H33.3333C16.6667 88.8889 8.33334 66.6667 8.33334 66.6667Z" fill="#D1D3D4"/>
<path d="M0 83.3333H100V100H0V83.3333Z" fill="#55ACEE"/>
<path d="M13.8889 61.1111C13.8889 61.1111 19.4444 47.2222 27.7778 36.1111C36.1111 25 50 13.8889 50 13.8889C50 13.8889 47.2222 44.4444 47.2222 58.3333V61.1111C47.2222 61.1111 38.8889 58.3333 30.5556 58.3333C22.2222 58.3333 13.8889 61.1111 13.8889 61.1111Z" fill="#FFAC33"/>
<path d="M55.5555 5.55554C55.5555 5.55554 72.2222 22.2222 80.5555 36.1111C88.2528 48.9389 91.6667 61.1111 91.6667 61.1111C91.6667 61.1111 83.3333 58.3333 75 58.3333C66.6667 58.3333 58.3333 61.1111 58.3333 61.1111V58.3333C58.3333 33.3333 55.5555 5.55554 55.5555 5.55554Z" fill="#F4900C"/>
<path d="M5.55555 66.6667C4.02222 66.6667 2.77777 67.9083 2.77777 69.4444C2.77777 70.9805 4.02222 72.2222 5.55555 72.2222H97.2222V66.6667H5.55555Z" fill="#E6E7E8"/>
<path d="M24.3867 81V74.4545H27.1161C27.6061 74.4545 28.0163 74.5238 28.3465 74.6623C28.6789 74.8008 28.9282 74.9947 29.0944 75.244C29.2627 75.4933 29.3469 75.782 29.3469 76.1101C29.3469 76.3594 29.2947 76.582 29.1903 76.7781C29.0859 76.9719 28.9421 77.1328 28.7588 77.2607C28.5756 77.3885 28.3636 77.478 28.1228 77.5291V77.593C28.387 77.6058 28.631 77.6772 28.8547 77.8072C29.0806 77.9371 29.2617 78.1183 29.398 78.3505C29.5344 78.5806 29.6026 78.8533 29.6026 79.1687C29.6026 79.5202 29.5131 79.8345 29.3341 80.1115C29.1551 80.3864 28.8963 80.6037 28.5575 80.7635C28.2187 80.9212 27.8075 81 27.3238 81H24.3867ZM25.9687 79.7248H26.9467C27.2897 79.7248 27.5422 79.6598 27.7041 79.5298C27.8682 79.3999 27.9502 79.2188 27.9502 78.9865C27.9502 78.8182 27.9108 78.6733 27.832 78.5518C27.7531 78.4283 27.6413 78.3335 27.4964 78.2674C27.3515 78.1992 27.1779 78.1651 26.9755 78.1651H25.9687V79.7248ZM25.9687 77.1456H26.8444C27.017 77.1456 27.1704 77.1168 27.3046 77.0593C27.4389 77.0018 27.5433 76.9187 27.6179 76.81C27.6946 76.7013 27.7329 76.5703 27.7329 76.4169C27.7329 76.1974 27.6551 76.0249 27.4996 75.8991C27.3441 75.7734 27.1342 75.7106 26.87 75.7106H25.9687V77.1456ZM39.6011 77.7273C39.6011 78.4474 39.4627 79.0579 39.1857 79.5586C38.9087 80.0593 38.5337 80.4396 38.0607 80.6996C37.5898 80.9595 37.0614 81.0895 36.4754 81.0895C35.8874 81.0895 35.3579 80.9585 34.887 80.6964C34.4161 80.4343 34.0422 80.054 33.7652 79.5554C33.4904 79.0547 33.3529 78.4453 33.3529 77.7273C33.3529 77.0071 33.4904 76.3967 33.7652 75.896C34.0422 75.3952 34.4161 75.0149 34.887 74.755C35.3579 74.495 35.8874 74.3651 36.4754 74.3651C37.0614 74.3651 37.5898 74.495 38.0607 74.755C38.5337 75.0149 38.9087 75.3952 39.1857 75.896C39.4627 76.3967 39.6011 77.0071 39.6011 77.7273ZM37.984 77.7273C37.984 77.3011 37.9232 76.9411 37.8018 76.647C37.6825 76.353 37.5099 76.1303 37.284 75.979C37.0603 75.8278 36.7908 75.7521 36.4754 75.7521C36.1622 75.7521 35.8927 75.8278 35.6668 75.979C35.441 76.1303 35.2673 76.353 35.1459 76.647C35.0266 76.9411 34.9669 77.3011 34.9669 77.7273C34.9669 78.1534 35.0266 78.5135 35.1459 78.8075C35.2673 79.1016 35.441 79.3242 35.6668 79.4755C35.8927 79.6268 36.1622 79.7024 36.4754 79.7024C36.7908 79.7024 37.0603 79.6268 37.284 79.4755C37.5099 79.3242 37.6825 79.1016 37.8018 78.8075C37.9232 78.5135 37.984 78.1534 37.984 77.7273ZM44.6139 81H42.9136L45.1221 74.4545H47.2283L49.4367 81H47.7364L46.1991 76.1037H46.148L44.6139 81ZM44.387 78.424H47.941V79.6257H44.387V78.424ZM52.1699 75.7393V74.4545H57.7022V75.7393H55.7175V81H54.1578V75.7393H52.1699ZM67.1775 76.826H65.5794C65.5581 76.6619 65.5145 76.5138 65.4484 76.3817C65.3824 76.2496 65.295 76.1367 65.1863 76.043C65.0777 75.9492 64.9488 75.8778 64.7996 75.8288C64.6526 75.7777 64.4896 75.7521 64.3106 75.7521C63.9931 75.7521 63.7194 75.8299 63.4892 75.9854C63.2613 76.141 63.0855 76.3658 62.9619 76.6598C62.8404 76.9538 62.7797 77.3097 62.7797 77.7273C62.7797 78.1619 62.8415 78.5263 62.9651 78.8203C63.0908 79.1122 63.2666 79.3327 63.4924 79.4819C63.7204 79.6289 63.99 79.7024 64.301 79.7024C64.4757 79.7024 64.6345 79.68 64.7772 79.6353C64.9221 79.5906 65.0489 79.5256 65.1576 79.4403C65.2684 79.353 65.3589 79.2475 65.4292 79.1239C65.5017 78.9982 65.5517 78.8565 65.5794 78.6989L67.1775 78.7085C67.1498 78.9982 67.0656 79.2837 66.925 79.565C66.7865 79.8462 66.5958 80.103 66.3529 80.3352C66.11 80.5653 65.8138 80.7486 65.4644 80.8849C65.1171 81.0213 64.7186 81.0895 64.2691 81.0895C63.6767 81.0895 63.1462 80.9595 62.6775 80.6996C62.2108 80.4375 61.8422 80.0561 61.5716 79.5554C61.301 79.0547 61.1657 78.4453 61.1657 77.7273C61.1657 77.0071 61.3032 76.3967 61.578 75.896C61.8529 75.3952 62.2247 75.0149 62.6934 74.755C63.1622 74.495 63.6874 74.3651 64.2691 74.3651C64.6654 74.3651 65.0319 74.4205 65.3685 74.5312C65.7052 74.6399 66.0013 74.7997 66.257 75.0107C66.5127 75.2195 66.7204 75.4762 66.8802 75.7809C67.04 76.0856 67.1391 76.4339 67.1775 76.826ZM75.1026 74.4545H76.6814V78.6765C76.6814 79.1644 76.5653 79.5895 76.3331 79.9517C76.1008 80.3118 75.777 80.5909 75.3615 80.7891C74.946 80.9851 74.4634 81.0831 73.9137 81.0831C73.3576 81.0831 72.8718 80.9851 72.4563 80.7891C72.0408 80.5909 71.718 80.3118 71.4879 79.9517C71.2578 79.5895 71.1427 79.1644 71.1427 78.6765V74.4545H72.7248V78.5391C72.7248 78.7649 72.7738 78.9663 72.8718 79.1431C72.9719 79.32 73.1115 79.4585 73.2905 79.5586C73.4694 79.6587 73.6772 79.7088 73.9137 79.7088C74.1502 79.7088 74.3569 79.6587 74.5337 79.5586C74.7127 79.4585 74.8522 79.32 74.9524 79.1431C75.0525 78.9663 75.1026 78.7649 75.1026 78.5391V74.4545ZM80.733 81V74.4545H83.4368C83.9269 74.4545 84.3498 74.5504 84.7057 74.7422C85.0636 74.9318 85.3395 75.1971 85.5334 75.538C85.7273 75.8768 85.8243 76.271 85.8243 76.7205C85.8243 77.1722 85.7252 77.5675 85.527 77.9062C85.331 78.2429 85.0508 78.5039 84.6865 78.6893C84.3221 78.8746 83.8896 78.9673 83.3889 78.9673H81.7206V77.7209H83.0949C83.3335 77.7209 83.5327 77.6793 83.6925 77.5962C83.8545 77.5131 83.977 77.397 84.0601 77.2479C84.1432 77.0966 84.1847 76.9208 84.1847 76.7205C84.1847 76.5181 84.1432 76.3434 84.0601 76.1964C83.977 76.0472 83.8545 75.9322 83.6925 75.8512C83.5306 75.7702 83.3314 75.7298 83.0949 75.7298H82.315V81H80.733Z" fill="white"/>
</g>
<g clip-path="url(#clip2_1_2)">
<path d="M62.8461 37.7778H66.1794C66.7928 37.7778 67.2222 37.72 67.2222 38.3333V37.2222C67.2222 36.6089 66.7928 36.1111 66.1794 36.1111H61.735C60.6239 36.1111 59.7444 37.2917 60.0683 38.8889C60.0683 38.8889 61.0633 44.0972 61.1333 44.4211C61.3183 45.2778 62.3133 46.1111 63.3783 46.1111H67.2439C67.8578 46.1111 67.2222 45.0578 67.2222 44.4444V43.3333C67.2222 43.9467 66.7928 44.4444 66.1794 44.4444H63.9572C63.3439 44.4444 62.9389 43.8656 62.8461 43.3333C62.7533 42.8011 61.9661 39.2594 61.9661 39.2594C61.7811 38.1944 62.2322 37.7778 62.8461 37.7778ZM77.1861 37.7778H73.8528C73.2394 37.7778 72.2222 37.72 72.2222 38.3333V37.2222C72.2222 36.6089 73.2394 36.1111 73.8528 36.1111H78.2972C79.4083 36.1111 80.2883 37.2917 79.9639 38.8889C79.9639 38.8889 79.0567 44.1217 78.98 44.4444C78.7833 45.2778 77.8456 46.1111 76.7578 46.1111H72.7878C72.1744 46.1111 72.2222 45.0578 72.2222 44.4444V43.3333C72.2222 43.9467 73.2394 44.4444 73.8528 44.4444H76.075C76.6883 44.4444 77.0939 43.8656 77.1861 43.3333C77.2783 42.8011 78.0661 39.2594 78.0661 39.2594C78.2506 38.1944 77.8 37.7778 77.1861 37.7778ZM71.5733 47.2222C71.5733 43.3567 70.0683 47.2222 70.0683 47.2222C70.0683 47.2222 68.4017 43.3567 68.4017 47.2222C68.4017 51.0878 66.5733 52.7778 66.5733 52.7778H73.4022C73.4017 52.7778 71.5733 51.0878 71.5733 47.2222Z" fill="#FFAC33"/>
<path d="M76.1794 38.6539C76.1794 42.4178 72.4183 48.7606 70.0683 48.7606C67.7178 48.7606 63.9572 42.4178 63.9572 38.6539C63.9572 35.7678 64.5128 35.1433 65.6239 35.1433C66.3872 35.1433 68.9711 35.1283 70.0683 35.1283L73.9572 35.1278C75.5778 35.1272 76.1794 35.5078 76.1794 38.6539Z" fill="#FFCC4D"/>
<path d="M75 53.3333C75 53.9467 75.1261 54.4444 74.5128 54.4444H65.6239C65.01 54.4444 65 53.9467 65 53.3333V52.7778C65 52.1644 65.6467 51.6667 66.2256 51.6667H73.9572C74.5361 51.6667 75 52.1644 75 52.7778V53.3333Z" fill="#C1694F"/>
<path d="M76.1111 54.2361C76.1111 54.6583 76.2028 55 75.4156 55H64.7211C64.0033 55 63.8889 54.6583 63.8889 54.2361V54.0972C63.8889 53.675 64.2989 53.3333 64.7211 53.3333H75.4156C75.8372 53.3333 76.1111 53.675 76.1111 54.0972V54.2361Z" fill="#C1694F"/>
</g>
</g>
<defs>
<clipPath id="clip0_1_2">
<rect width="100" height="100" fill="white"/>
</clipPath>
<clipPath id="clip1_1_2">
<rect width="100" height="100" fill="white"/>
</clipPath>
<clipPath id="clip2_1_2">
<rect width="20" height="20" fill="white" transform="translate(60 35)"/>
</clipPath>
</defs>
</svg>
